<?xml version="1.0" encoding="UTF-8" standalone="no"?><!-- Created with Inkscape (http://www.inkscape.org/) -->

<svg width="210mm" height="297mm" viewBox="0 0 210 297" version="1.1" id="svg5"
    sodipodi:docname="baloon.svg" inkscape:version="1.2.1 (9c6d41e410, 2022-07-14)"
    xmlns:inkscape="http://www.inkscape.org/namespaces/inkscape"
    xmlns:sodipodi="http://sodipodi.sourceforge.net/DTD/sodipodi-0.dtd"
    xmlns="http://www.w3.org/2000/svg">
  <sodipodi:namedview id="namedview18" pagecolor="#505050" bordercolor="#ffffff" borderopacity="1"
      inkscape:showpageshadow="0" inkscape:pageopacity="0" inkscape:pagecheckerboard="1"
      inkscape:deskcolor="#505050" inkscape:document-units="mm" showgrid="false"
      inkscape:zoom="0.84271707" inkscape:cx="239.70085" inkscape:cy="569.58618"
      inkscape:window-width="2880" inkscape:window-height="1514" inkscape:window-x="-11"
      inkscape:window-y="-11" inkscape:window-maximized="1" inkscape:current-layer="layer1" />
  <defs id="defs2" />
  <g id="layer1">
    <g id="g380" style="fill:#ffffff">
      <circle style="fill:#ffffff;stroke-width:0.264583" id="path111" cx="109.54689" cy="81.456383"
          r="71.857475" />
      <path style="fill:#ffffff;stroke-width:0.264583"
          d="M 38.068856,86.834741 C 46.957424,132.39424 65.668848,151.0056 85.89089,190.974 h 44.67585 c 19.0102,-40.94425 45.31632,-62.36565 50.33898,-102.251549 z"
          id="path324" />
      <path style="fill:#aa0000;stroke-width:0.264583"
          d="m 105.08263,9.4385592 c 0,0 -21.794812,15.0479388 -35.707742,32.4691718 -9.148894,11.455893 -11.675235,23.580886 -13.687389,34.38729 -5.630751,30.240309 28.956812,97.194629 37.071008,114.157149 1.597203,3.33891 -6.867617,0.20673 -6.867617,0.20673 0,0 -20.347138,-34.88999 -32.588956,-57.22975 C 45.823837,119.78257 37.45071,102.20868 36.967691,85.261652 36.550045,70.608297 41.146758,55.442429 48.696097,42.876495 55.78286,31.080522 66.407578,20.747504 78.65466,14.472458 86.635738,10.383187 105.08263,9.4385592 105.08263,9.4385592 Z"
          id="path825" />
      <path style="fill:#aa0000;stroke-width:0.264583"
          d="m 114.42941,9.4014008 c 0,0 21.79481,15.0479392 35.70774,32.4691722 9.14889,11.455893 11.67523,23.580886 13.68739,34.38729 5.63075,30.240307 -28.95681,97.194627 -37.07101,114.157147 -1.5972,3.33891 6.86762,0.20673 6.86762,0.20673 0,0 20.34713,-34.88999 32.58895,-57.22975 7.4781,-13.64658 15.85123,-31.22047 16.33425,-48.167496 C 182.962,70.571139 178.36528,55.405271 170.81594,42.839337 163.72918,31.043364 153.10446,20.710346 140.85738,14.4353 132.8763,10.346029 114.42941,9.4014008 114.42941,9.4014008 Z"
          id="path825-7" />
      <path style="fill:#aa0000;stroke-width:0.265503"
          d="m 97.855681,190.77119 6.292369,0.31681 c 0,0 -9.721579,-41.57239 -12.270119,-62.7286 -1.88376,-15.63768 -3.8077,-31.535722 -2.20233,-47.204859 2.06739,-20.178705 8.71099,-39.688843 15.101689,-58.926869 1.47662,-4.445088 5.34851,-12.9892556 5.34851,-12.9892556 l -6.9216,0.3168115 c 0,0 -9.067889,13.4836681 -12.270129,20.9095291 -5.48538,12.72039 -7.79854,26.600969 -11.64089,39.9182 -4.09012,14.176024 -4.19801,27.427923 -3.4608,41.185453 0.85774,16.00693 4.58823,31.83907 9.12394,47.20486 3.25709,11.03416 12.89936,31.99792 12.89936,31.99792 z"
          id="path966" />
      <path style="fill:#aa0000;stroke-width:0.265044"
          d="m 121.77587,190.49286 -6.32012,0.066 c 0,0 9.72159,-41.42854 12.27013,-62.51154 1.88376,-15.58357 3.8077,-31.426595 2.20234,-47.041524 -2.0674,-20.108882 -8.711,-39.551501 -15.1017,-58.722959 C 113.34989,17.853087 109.478,9.3384869 109.478,9.3384869 l 6.92161,0.315716 c 0,0 9.06789,13.4370111 12.27012,20.8371761 5.48539,12.676375 7.79856,26.508925 11.64089,39.780076 4.09013,14.126972 4.19802,27.333016 3.46082,41.042935 -0.85775,15.95153 -4.58823,31.7289 -9.12394,47.04151 -3.25711,10.99598 -12.87163,32.13696 -12.87163,32.13696 z"
          id="path966-6" sodipodi:nodetypes="ccsssccssssc" />
    </g>
    <path style="fill:#800000;stroke-width:0.264583"
        d="m 81.646114,190.87838 c -1.631273,0.0233 -1.631323,4.87476 0,4.89432 16.962965,0.20334 32.475796,-0.27019 52.932006,-0.31587 1.59952,-0.004 1.52048,-4.76459 -0.0787,-4.79793 -20.48277,-0.42698 -35.52713,-0.0283 -52.853306,0.21948 z"
        id="path382" />
    <rect style="fill:#483e37;stroke-width:0.264583" id="rect438" width="58.633583"
        height="34.630405" x="79.525452" y="249.89607" ry="7.0077729" />
    <rect style="fill:#28170b;stroke-width:0.264583" id="rect440" width="64.293533"
        height="12.013325" x="76.809052" y="246.91054" ry="6.0066624" />
    <path style="fill:#000000;stroke-width:0.617"
        d="m 89.933083,195.7727 4.8387,15.01665 28.142327,0.16685 4.39376,-15.46159 -1.16796,0.0556 -4.00444,14.01554 c -2.86612,-0.0347 -5.09676,-0.057 -8.22814,-0.0556 v -2.8921 h -9.6774 v 2.55839 h -8.345802 l -4.783084,-13.2369 z"
        id="path1583" sodipodi:nodetypes="ccccccccccccc" />
    <g id="g1841" inkscape:label="flame">
      <path style="fill:#aa0000;stroke-width:0.617"
          d="m 104.85097,206.61186 c 0,0 0.46575,-2.92527 1.92268,-3.48829 1.42136,-0.54928 2.20668,-4.00357 2.20668,-4.00357 0.3778,1.33043 1.18824,3.54242 2.23619,4.0188 1.23168,0.48801 1.93251,3.47306 1.93251,3.47306 z"
          id="path1586" sodipodi:nodetypes="cscccc" />
      <path style="fill:#ff9955;stroke-width:0.385418"
          d="m 106.36347,206.60989 c 0,0 0.29092,-1.82731 1.20102,-2.17901 0.88788,-0.34311 1.37844,-2.50088 1.37844,-2.50088 0.23599,0.83107 0.74225,2.21282 1.39686,2.51039 0.7694,0.30485 1.20718,2.1695 1.20718,2.1695 z"
          id="path1586-0" sodipodi:nodetypes="cscccc" />
      <path style="fill:#ffcc00;stroke-width:0.224137"
          d="m 107.4758,206.61156 c 0,0 0.16919,-1.06266 0.69845,-1.26719 0.51634,-0.19953 0.80161,-1.45437 0.80161,-1.45437 0.13724,0.48331 0.43166,1.28685 0.81234,1.4599 0.44743,0.17729 0.70202,1.26166 0.70202,1.26166 z"
          id="path1586-0-4" sodipodi:nodetypes="cscccc" />
    </g>
    <path style="fill:#ffffff;stroke-width:0.264583"
        d="m 89.988701,195.88393 -7.230242,51.05663 1.557282,0.11124 6.896539,-51.05663 z"
        id="path667" />
    <path style="fill:#ffffff;stroke-width:0.265587"
        d="m 106.48672,195.15778 -0.18558,51.95773 1.55787,-0.10339 -0.14499,-51.91178 z"
        id="path667-8" />
    <path style="fill:#ffffff;stroke-width:0.264583"
        d="m 127.36349,195.55023 7.23024,51.05663 -1.55728,0.11124 -6.89654,-51.05663 z"
        id="path667-7" />
  </g>
</svg>
