<?xml version="1.0" encoding="UTF-8" standalone="no"?><!-- Created with Inkscape (http://www.inkscape.org/) -->

<svg width="847.75024mm" height="245.73024mm" viewBox="0 0 847.75023 245.73024" version="1.1"
    id="svg116" sodipodi:docname="cloud_variant_1.svg"
    inkscape:version="1.2.1 (9c6d41e410, 2022-07-14)"
    xmlns:inkscape="http://www.inkscape.org/namespaces/inkscape"
    xmlns:sodipodi="http://sodipodi.sourceforge.net/DTD/sodipodi-0.dtd"
    xmlns="http://www.w3.org/2000/svg" xmlns:rdf="http://www.w3.org/1999/02/22-rdf-syntax-ns#"
    xmlns:cc="http://creativecommons.org/ns#" xmlns:dc="http://purl.org/dc/elements/1.1/">
  <sodipodi:namedview id="namedview465" pagecolor="#505050" bordercolor="#ffffff" borderopacity="1"
      inkscape:showpageshadow="0" inkscape:pageopacity="0" inkscape:pagecheckerboard="1"
      inkscape:deskcolor="#505050" inkscape:document-units="mm" showgrid="false"
      inkscape:zoom="0.13498677" inkscape:cx="3541.0878" inkscape:cy="244.46841"
      inkscape:window-width="2560" inkscape:window-height="1494" inkscape:window-x="2869"
      inkscape:window-y="-11" inkscape:window-maximized="1" inkscape:current-layer="svg116" />
  <title id="title3976">Clouds</title>
  <defs id="defs113" />
  <g id="layer1" transform="translate(1016.0009,-81.744958)">
    <g id="g385-9-25-9" style="fill:#000000"
        transform="matrix(0.96579204,0,0,0.96937821,-642.80984,86.398583)">
      <path style="fill:#000000;stroke-width:0.264583"
          d="m 0.62652462,128.7041 c 7.84348418,-6.85832 9.78137838,-0.31343 15.00241538,-1.61574 7.932848,-1.97872 11.968136,-15.12893 23.046792,-15.46582 24.772033,-0.75329 20.275533,-9.87498 30.356068,-16.256049 21.362371,-13.522568 23.577755,8.086079 38.47676,1.641763 18.54285,-18.323711 25.45068,-20.44976 49.02539,-11.56839 21.67343,1.36882 15.56351,-1.237426 27.54303,-9.75318 12.22449,-8.689891 25.30649,-7.309127 25.30649,-7.309127 V 169.85426 H -11.73304 c 0,0 0.435965,-31.08019 12.35956462,-41.15016 z m 417.51389538,0 c -7.84349,-6.85832 -9.78138,-0.31343 -15.00242,-1.61574 -7.93285,-1.97872 -11.96814,-15.12893 -23.04679,-15.46582 -24.77204,-0.75329 -20.27554,-9.87498 -30.35607,-16.256049 -21.36237,-13.522568 -23.57776,8.086079 -38.47676,1.641763 -18.54285,-18.323711 -25.45068,-20.44976 -49.02539,-11.56839 -21.67343,1.36882 -15.56351,-1.237426 -27.54303,-9.75318 -12.22449,-8.689891 -25.30649,-7.309127 -25.30649,-7.309127 V 169.85426 h 221.11651 c 0,0 -0.43597,-31.08019 -12.35956,-41.15016 z"
          id="path122-6-2-7" transform="translate(-78.654661,-21.079448)"
          class="UnoptimicedTransforms" />
      <path transform="matrix(1,0,0,-1,-78.654661,316.98927)" id="path342-9-85-4"
          d="m 0.62652462,128.7041 c 7.84348418,-6.85832 9.78137838,-0.31343 15.00241538,-1.61574 7.932848,-1.97872 11.968136,-15.12893 23.046792,-15.46582 24.772033,-0.75329 20.275533,-9.87498 30.356068,-16.256049 21.362371,-13.522568 23.577755,8.086079 38.47676,1.641763 18.54285,-18.323711 25.45068,-20.44976 49.02539,-11.56839 21.67343,1.36882 15.56351,-1.237426 27.54303,-9.75318 12.22449,-8.689891 25.30649,-7.309127 25.30649,-7.309127 V 169.85426 H -11.73304 c 0,0 0.435965,-31.08019 12.35956462,-41.15016 z m 417.51389538,0 c -7.84349,-6.85832 -9.78138,-0.31343 -15.00242,-1.61574 -7.93285,-1.97872 -11.96814,-15.12893 -23.04679,-15.46582 -24.77204,-0.75329 -20.27554,-9.87498 -30.35607,-16.256049 -21.36237,-13.522568 -23.57776,8.086079 -38.47676,1.641763 -18.54285,-18.323711 -25.45068,-20.44976 -49.02539,-11.56839 -21.67343,1.36882 -15.56351,-1.237426 -27.54303,-9.75318 -12.22449,-8.689891 -25.30649,-7.309127 -25.30649,-7.309127 V 169.85426 h 221.11651 c 0,0 -0.43597,-31.08019 -12.35956,-41.15016 z"
          style="fill:#000000;stroke-width:0.264583" class="UnoptimicedTransforms" />
    </g>
    <g id="g385-9-2-7-8" style="fill:#000000"
        transform="matrix(0.96579204,0,0,0.96937821,-508.06006,66.176429)">
      <path style="fill:#000000;stroke-width:0.264583"
          d="m 0.62652462,128.7041 c 7.84348418,-6.85832 9.78137838,-0.31343 15.00241538,-1.61574 7.932848,-1.97872 11.968136,-15.12893 23.046792,-15.46582 24.772033,-0.75329 20.275533,-9.87498 30.356068,-16.256049 21.362371,-13.522568 23.577755,8.086079 38.47676,1.641763 18.54285,-18.323711 25.45068,-20.44976 49.02539,-11.56839 21.67343,1.36882 15.56351,-1.237426 27.54303,-9.75318 12.22449,-8.689891 25.30649,-7.309127 25.30649,-7.309127 V 169.85426 H -11.73304 c 0,0 0.435965,-31.08019 12.35956462,-41.15016 z m 417.51389538,0 c -7.84349,-6.85832 -9.78138,-0.31343 -15.00242,-1.61574 -7.93285,-1.97872 -11.96814,-15.12893 -23.04679,-15.46582 -24.77204,-0.75329 -20.27554,-9.87498 -30.35607,-16.256049 -21.36237,-13.522568 -23.57776,8.086079 -38.47676,1.641763 -18.54285,-18.323711 -25.45068,-20.44976 -49.02539,-11.56839 -21.67343,1.36882 -15.56351,-1.237426 -27.54303,-9.75318 -12.22449,-8.689891 -25.30649,-7.309127 -25.30649,-7.309127 V 169.85426 h 221.11651 c 0,0 -0.43597,-31.08019 -12.35956,-41.15016 z"
          id="path122-6-8-7-2" transform="translate(-78.654661,-21.079448)"
          class="UnoptimicedTransforms" />
      <path transform="matrix(1,0,0,-1,-78.654661,316.98927)" class="UnoptimicedTransforms"
          id="path342-9-8-6-7"
          d="m 0.62652462,128.7041 c 7.84348418,-6.85832 9.78137838,-0.31343 15.00241538,-1.61574 7.932848,-1.97872 11.968136,-15.12893 23.046792,-15.46582 24.772033,-0.75329 20.275533,-9.87498 30.356068,-16.256049 21.362371,-13.522568 23.577755,8.086079 38.47676,1.641763 18.54285,-18.323711 25.45068,-20.44976 49.02539,-11.56839 21.67343,1.36882 15.56351,-1.237426 27.54303,-9.75318 12.22449,-8.689891 25.30649,-7.309127 25.30649,-7.309127 V 169.85426 H -11.73304 c 0,0 0.435965,-31.08019 12.35956462,-41.15016 z m 417.51389538,0 c -7.84349,-6.85832 -9.78138,-0.31343 -15.00242,-1.61574 -7.93285,-1.97872 -11.96814,-15.12893 -23.04679,-15.46582 -24.77204,-0.75329 -20.27554,-9.87498 -30.35607,-16.256049 -21.36237,-13.522568 -23.57776,8.086079 -38.47676,1.641763 -18.54285,-18.323711 -25.45068,-20.44976 -49.02539,-11.56839 -21.67343,1.36882 -15.56351,-1.237426 -27.54303,-9.75318 -12.22449,-8.689891 -25.30649,-7.309127 -25.30649,-7.309127 V 169.85426 h 221.11651 c 0,0 -0.43597,-31.08019 -12.35956,-41.15016 z"
          style="fill:#000000;stroke-width:0.264583" />
    </g>
    <g id="g385-9-6-9-5" style="fill:#000000"
        transform="matrix(0.96579204,0,0,0.96937821,-928.70517,35.97304)">
      <path style="fill:#000000;stroke-width:0.264583"
          d="m 0.62652462,128.7041 c 7.84348418,-6.85832 9.78137838,-0.31343 15.00241538,-1.61574 7.932848,-1.97872 11.968136,-15.12893 23.046792,-15.46582 24.772033,-0.75329 20.275533,-9.87498 30.356068,-16.256049 21.362371,-13.522568 23.577755,8.086079 38.47676,1.641763 18.54285,-18.323711 25.45068,-20.44976 49.02539,-11.56839 21.67343,1.36882 15.56351,-1.237426 27.54303,-9.75318 12.22449,-8.689891 25.30649,-7.309127 25.30649,-7.309127 V 169.85426 H -11.73304 c 0,0 0.435965,-31.08019 12.35956462,-41.15016 z m 417.51389538,0 c -7.84349,-6.85832 -9.78138,-0.31343 -15.00242,-1.61574 -7.93285,-1.97872 -11.96814,-15.12893 -23.04679,-15.46582 -24.77204,-0.75329 -20.27554,-9.87498 -30.35607,-16.256049 -21.36237,-13.522568 -23.57776,8.086079 -38.47676,1.641763 -18.54285,-18.323711 -25.45068,-20.44976 -49.02539,-11.56839 -21.67343,1.36882 -15.56351,-1.237426 -27.54303,-9.75318 -12.22449,-8.689891 -25.30649,-7.309127 -25.30649,-7.309127 V 169.85426 h 221.11651 c 0,0 -0.43597,-31.08019 -12.35956,-41.15016 z"
          id="path122-6-7-3-5" transform="translate(-78.654661,-21.079448)"
          class="UnoptimicedTransforms" />
      <path transform="matrix(1,0,0,-1,-78.654661,316.98927)" class="UnoptimicedTransforms"
          id="path342-9-4-6-0"
          d="m 0.62652462,128.7041 c 7.84348418,-6.85832 9.78137838,-0.31343 15.00241538,-1.61574 7.932848,-1.97872 11.968136,-15.12893 23.046792,-15.46582 24.772033,-0.75329 20.275533,-9.87498 30.356068,-16.256049 21.362371,-13.522568 23.577755,8.086079 38.47676,1.641763 18.54285,-18.323711 25.45068,-20.44976 49.02539,-11.56839 21.67343,1.36882 15.56351,-1.237426 27.54303,-9.75318 12.22449,-8.689891 25.30649,-7.309127 25.30649,-7.309127 V 169.85426 H -11.73304 c 0,0 0.435965,-31.08019 12.35956462,-41.15016 z m 417.51389538,0 c -7.84349,-6.85832 -9.78138,-0.31343 -15.00242,-1.61574 -7.93285,-1.97872 -11.96814,-15.12893 -23.04679,-15.46582 -24.77204,-0.75329 -20.27554,-9.87498 -30.35607,-16.256049 -21.36237,-13.522568 -23.57776,8.086079 -38.47676,1.641763 -18.54285,-18.323711 -25.45068,-20.44976 -49.02539,-11.56839 -21.67343,1.36882 -15.56351,-1.237426 -27.54303,-9.75318 -12.22449,-8.689891 -25.30649,-7.309127 -25.30649,-7.309127 V 169.85426 h 221.11651 c 0,0 -0.43597,-31.08019 -12.35956,-41.15016 z"
          style="fill:#000000;stroke-width:0.264583" />
    </g>
  </g>
  <metadata id="metadata3974">
    <rdf:RDF>
      <cc:Work rdf:about="">
        <dc:title>Clouds</dc:title>
      </cc:Work>
    </rdf:RDF>
  </metadata>
</svg>
