<?xml version="1.0" encoding="UTF-8" standalone="no"?><!-- Created with Inkscape (http://www.inkscape.org/) -->

<svg width="320.24008mm" height="145.11517mm" viewBox="0 0 320.24008 145.11517" version="1.1"
    id="svg5" inkscape:version="1.2.1 (9c6d41e410, 2022-07-14)" sodipodi:docname="plane.svg"
    inkscape:export-filename="plane_plain.svg" inkscape:export-xdpi="96" inkscape:export-ydpi="96"
    xmlns:inkscape="http://www.inkscape.org/namespaces/inkscape"
    xmlns:sodipodi="http://sodipodi.sourceforge.net/DTD/sodipodi-0.dtd"
    xmlns="http://www.w3.org/2000/svg">
  <sodipodi:namedview id="namedview7" pagecolor="#505050" bordercolor="#ffffff" borderopacity="1"
      inkscape:showpageshadow="0" inkscape:pageopacity="0" inkscape:pagecheckerboard="1"
      inkscape:deskcolor="#505050" inkscape:document-units="mm" showgrid="false"
      inkscape:zoom="0.84096521" inkscape:cx="659.95596" inkscape:cy="192.63579"
      inkscape:window-width="2560" inkscape:window-height="1494" inkscape:window-x="2869"
      inkscape:window-y="-11" inkscape:window-maximized="1" inkscape:current-layer="layer1" />
  <defs id="defs2" />
  <g inkscape:label="Camada 1" inkscape:groupmode="layer" id="layer1"
      transform="translate(152.07949,-92.309862)">
    <path style="fill:#000000;stroke-width:0.264583"
        d="m -138.01302,154.48555 -14.06647,-61.113041 c 0,0 33.55593,-4.459748 45.68268,4.89338 6.419566,4.951281 13.711507,28.213851 33.74907,37.397661 1.002568,0.4595 11.933156,6.81762 18.569137,7.35827 30.37237,2.47452 84.953653,0.40246 84.953653,0.40246 l -43.809179,-31.93144 c 29.083834,-13.071319 46.868978,-4.79628 62.971881,-0.36527 l 35.407283,27.22577 20.524955,2.19678 2.40274,2.78346 9.12586,10.56647 -0.95354,-0.0408 -9.22744,-10.45439 c -9.604882,0.22575 -9.515018,0.18548 -40.087494,0.42366 -3.73111,0.0291 -10.701748,8.74609 -6.971448,8.82911 56.404472,1.25538 57.180842,0.89064 57.180842,0.89064 l 31.97773,2.64872 c 0,0 2.11589,0.17888 3.17428,0.26293 4.73754,0.37631 5.57219,30.8721 1.39224,31.26211 -0.9864,0.092 -1.03924,0.11306 -2.95587,0.30987 -16.59248,1.70381 -98.941205,9.68444 -142.0327501,4.92812 C -41.35226,187.40285 -138.01302,154.48553 -138.01302,154.48553 Z"
        id="path113" sodipodi:nodetypes="ccssscccccccccssccsssscc" />
    <path style="fill:#000000;stroke-width:0.264583"
        d="m -119.88013,159.02587 -1.44347,3.22504 c 0,0 43.870387,13.56124 -10.263,-3.4541 -6.54697,-2.05786 -8.76354,12.73816 -4.06118,14.388 31.01496,10.8817 31.40116,11.04894 42.891876,11.83153 6.111711,0.41625 15.79287,-9.39796 15.79287,-9.39796 l -17.144828,-5.02473 1.574194,-3.6168 -2.744029,-1.03299 -1.733242,3.51297 -20.617681,-6.33668 1.49339,-3.61513 z"
        id="path265" sodipodi:nodetypes="ccssscccccccc" />
    <path style="fill:#000000;stroke-width:0.257778"
        d="m 94.788028,143.42018 5.173475,11.30163 0.999627,-0.0524 -5.258327,-11.67315 z"
        id="path375" sodipodi:nodetypes="ccccc" />
    <path style="fill:#000000;stroke-width:0.264583"
        d="m 80.156908,142.55107 0.375881,12.16001 1.021164,0.61151 -0.303081,-12.50415 z"
        id="path375-2" sodipodi:nodetypes="ccccc" />
    <path style="fill:#000000;stroke-width:0.264583"
        d="m 33.392634,193.58565 -1.533827,20.43988 c 0,0 1.325742,0.2651 -43.385993,-0.22661 -2.744623,-0.0302 -2.494018,7.21073 0.05282,8.2342 51.360719,20.63991 83.627349,15.23978 114.322576,13.25939 17.82537,-1.15006 45.05412,-6.73107 51.72808,-14.4567 3.44451,-3.98732 -2.35524,-5.88734 -2.35524,-5.88734 l -43.3814,-0.44902 -6.71192,-30.62305 -4.03109,1.25203 6.30832,28.61208 -68.524225,-0.52216 0.607472,-18.67884 67.426083,21.41605 1.85271,-3.52208 -68.76519,-21.22113 57.786005,-7.48721 -60.895121,28.78469 2.387047,2.9419 63.156012,-30.51821 z"
        id="path379" sodipodi:nodetypes="ccssssccccccccccccccc" />
    <path style="fill:#000000;stroke-width:0.264583"
        d="m 154.9256,167.87732 c 0,0 9.83539,-3.22083 13.235,3.48764 -3.6585,6.56078 -12.81706,4.64001 -12.81706,4.64001 z"
        id="path439" sodipodi:nodetypes="cccc" />
    <path style="fill:#000000;stroke-width:0.328158"
        d="m 162.5792,174.78709 c 0,0 3.55077,22.56733 0.59838,35.02332 -0.0946,0.3984 -0.82698,0.2892 -1.00981,-0.0365 -4.61003,-8.21175 -1.08909,-35.11642 -1.08909,-35.11642 z"
        id="path441-5" sodipodi:nodetypes="csscc" />
    <path style="fill:#000000;stroke-width:0.334421"
        d="m 160.65995,170.40527 c 0,0 -3.47762,-23.36971 -0.47843,-36.32036 0.0961,-0.41423 0.82907,-0.30869 1.01102,0.0272 4.58774,8.46875 0.96944,36.41177 0.96944,36.41177 z"
        id="path441-5-2" sodipodi:nodetypes="csscc" />
  </g>
</svg>
