<?xml version="1.0" encoding="UTF-8" standalone="no"?><!-- Created with Inkscape (http://www.inkscape.org/) -->

<svg width="320.24008mm" height="145.11517mm" viewBox="0 0 320.24008 145.11517" version="1.1"
    id="svg5" sodipodi:docname="plane_plain.svg" inkscape:version="1.2.1 (9c6d41e410, 2022-07-14)"
    xmlns:inkscape="http://www.inkscape.org/namespaces/inkscape"
    xmlns:sodipodi="http://sodipodi.sourceforge.net/DTD/sodipodi-0.dtd"
    xmlns="http://www.w3.org/2000/svg">
  <sodipodi:namedview id="namedview13" pagecolor="#505050" bordercolor="#ffffff" borderopacity="1"
      inkscape:showpageshadow="0" inkscape:pageopacity="0" inkscape:pagecheckerboard="1"
      inkscape:deskcolor="#505050" inkscape:document-units="mm" showgrid="false"
      inkscape:zoom="0.86058081" inkscape:cx="321.87564" inkscape:cy="146.41275"
      inkscape:window-width="2560" inkscape:window-height="1494" inkscape:window-x="-11"
      inkscape:window-y="-11" inkscape:window-maximized="1" inkscape:current-layer="layer3" />
  <defs id="defs2" />
  <g inkscape:groupmode="layer" id="layer3" inkscape:label="background_layer">
    <path style="fill:#848585;fill-opacity:0.437346;stroke-width:0.264583"
        d="m 207.29641,49.998635 0.30745,12.912788 62.56555,-0.230584 -11.06811,-12.682204 z"
        id="path2935" />
    <path
        d="m 190.65926,102.00958 -1.53383,20.43988 76.98084,0.47392 -6.71192,-30.623057 -4.03109,1.25203 6.30832,28.612087 -68.52422,-0.52216 0.60747,-18.67884 67.42608,21.41605 1.85271,-3.52208 -68.76519,-21.221137 57.78601,-7.48721 -60.89512,28.784697 2.38704,2.9419 63.15601,-30.518217 z"
        style="fill:#4d4d4d;stroke:none;stroke-width:0.264583;stroke-opacity:1;fill-opacity:1"
        id="path8737" />
    <path
        d="M 160.64734,63.517732 122.3673,27.359394 115.49643,20.869347 c 24.49945,-10.496538 38.58521,-1.548393 51.50724,3.661664 l 40.90101,37.72032"
        style="fill:#ffffff;fill-opacity:1;stroke:#ffffff;stroke-width:1.29038;stroke-dasharray:none;stroke-opacity:1"
        id="path6488-3" sodipodi:nodetypes="ccccc" />
    <path
        style="fill:#f2f2f2;fill-opacity:1;stroke:#bfc0c0;stroke-width:0.665;stroke-dasharray:none;stroke-opacity:1"
        d="m 128.24939,33.625833 6.66841,-2.989715 19.03799,17.517948 -6.02327,3.891167 z"
        id="path10969" />
  </g>
  <g id="layer1" transform="translate(152.07949,-92.309862)"
      style="fill:#ffffff;stroke:none;stroke-opacity:1">
    <path style="fill:#ffffff;fill-opacity:1;stroke:none;stroke-width:0.264583;stroke-opacity:1"
        d="m -139.09789,143.3248 c 81.904411,1.8124 174.57314,-13.48426 237.024189,-4.51387 3.755941,0.5395 10.446471,4.52265 10.446471,4.52265 l 9.12586,10.56647 -0.95354,-0.0408 -9.22744,-10.45439 c -9.604882,0.22575 -9.515018,0.18548 -40.087494,0.42366 -3.73111,0.0291 -10.701748,8.74609 -6.971448,8.82911 56.404472,1.25538 57.180842,0.89064 57.180842,0.89064 l 31.97773,2.64872 c 0,0 2.11589,0.17888 3.17428,0.26293 1.73939,0.13816 2.95268,4.33643 3.58483,9.61413 0.33231,2.77438 0.50403,5.84705 0.50717,8.78502 0.007,6.69549 -0.86123,12.69141 -2.69976,12.86296 -0.9864,0.092 -1.03924,0.11306 -2.95587,0.30987 -16.59248,1.70381 -98.941202,9.68441 -142.0327501,4.92812 -22.7880489,-2.51526 -54.7476439,-10.80324 -82.9080269,-19.12302 -9.000316,-2.65907 -17.612542,-5.32139 -25.413208,-7.79953 -21.716525,-6.89897 -37.143235,-12.37048 -37.143235,-12.37048 -0.64755,-2.33888 -1.23154,-4.59478 -2.0259,-7.84991 -0.18791,-0.77006 -0.38761,-1.59605 -0.6027,-2.49228 z"
        id="path113" sodipodi:nodetypes="csccccsccccssssssscsc" />
    <path style="fill:#ffffff;stroke:none;stroke-width:0.264583;stroke-opacity:1"
        d="m -119.88013,159.02587 -1.44347,3.22504 c 0,0 43.870387,13.56124 -10.263,-3.4541 -1.81093,-0.56922 -3.29054,0.15107 -4.38404,1.52596 -2.85979,3.59568 -3.0788,11.66856 0.32286,12.86204 31.01496,10.88171 31.40116,11.04893 42.891876,11.83153 3.957435,0.26953 9.411462,-3.75035 12.764678,-6.61772 1.825362,-1.56088 3.028192,-2.78024 3.028192,-2.78024 l -17.144828,-5.02473 1.574194,-3.6168 -2.744029,-1.03299 -1.733242,3.51297 -20.617681,-6.33668 1.49339,-3.61513 z"
        id="path265" sodipodi:nodetypes="ccssssscccccccc" />
    <path style="fill:#ffffff;stroke-width:0.257778;stroke:none;stroke-opacity:1"
        d="m 94.788028,143.42018 5.173475,11.30163 0.999627,-0.0524 -5.258327,-11.67315 z"
        id="path375" />
    <path style="fill:#ffffff;stroke-width:0.264583;stroke:none;stroke-opacity:1"
        d="m 80.156908,142.55107 0.375881,12.16001 1.021164,0.61151 -0.303081,-12.50415 z"
        id="path375-2" />
    <path style="fill:#ffffff;stroke:none;stroke-width:0.264583;stroke-opacity:1"
        d="m -11.527186,213.79892 c -2.744623,-0.0302 -2.494018,7.21073 0.05282,8.2342 51.360719,20.63991 83.627349,15.23978 114.322576,13.25939 17.82537,-1.15006 45.05412,-6.73107 51.72808,-14.4567 3.44451,-3.98732 -2.35524,-5.88734 -2.35524,-5.88734 -85.205751,-0.165 16.8865,0.79947 -163.748236,-1.14955 z"
        id="path379" sodipodi:nodetypes="ccsscc" />
    <path style="fill:#cccccc;stroke-width:0.328158;stroke:none;stroke-opacity:1"
        d="m 162.5792,174.78709 c 0,0 3.55077,22.56733 0.59838,35.02332 -0.0946,0.3984 -0.82698,0.2892 -1.00981,-0.0365 -4.61003,-8.21175 -1.08909,-35.11642 -1.08909,-35.11642 z"
        id="path441-5" />
    <path style="fill:#cccccc;stroke-width:0.334421;stroke:none;stroke-opacity:1"
        d="m 160.65995,170.40527 c 0,0 -3.47762,-23.36971 -0.47843,-36.32036 0.0961,-0.41423 0.82907,-0.30869 1.01102,0.0272 4.58774,8.46875 0.96944,36.41177 0.96944,36.41177 z"
        id="path441-5-2" />
  </g>
  <g inkscape:groupmode="layer" id="layer2" inkscape:label="Colored Layer">
    <path
        d="m 140.64956,121.38985 c -2.74462,-0.0293 -2.49401,7.00411 0.0528,7.99826 64.18721,2.87404 128.16142,2.49176 166.35811,-1.31672 2.65959,-3.51187 -2.66269,-5.56493 -2.66269,-5.56493 -85.20575,-0.16027 16.8865,0.77656 -163.74824,-1.11661 z"
        style="fill:#0085ff;fill-opacity:1;stroke:none;stroke-width:0.260765;stroke-opacity:1"
        id="path13835" sodipodi:nodetypes="scccss" />
    <path
        d="m 308.40406,73.770327 c 0.33231,2.774379 0.39533,5.847048 0.39848,8.785019 0.007,6.695489 -202.76213,7.297711 -230.92252,-1.022069 -9.000316,-2.65907 -17.612542,-5.32139 -25.413208,-7.79953"
        style="fill:#0085ff;fill-opacity:1;stroke:none;stroke-width:0.264583;stroke-opacity:1"
        id="path13802" sodipodi:nodetypes="ccsc" />
    <path
        d="m 148.625,77.555513 -39.47799,43.282067 -14.76847,16.19155 c 29.4348,14.63753 46.35812,2.15925 61.88327,-5.10623 l 48.52556,-54.446063"
        style="fill:#f9f9f9;fill-opacity:1;stroke:#ffffff;stroke-width:1.67025;stroke-dasharray:none;stroke-opacity:1"
        id="path6488" sodipodi:nodetypes="ccccc" />
    <path style="fill:#0085ff;fill-opacity:1;stroke-width:0.264583"
        d="m 308.54952,76.359927 c 0,0 9.83539,-3.22083 13.235,3.48764 -3.6585,6.56078 -13.00921,4.64001 -13.00921,4.64001 z"
        id="path439" sodipodi:nodetypes="cccc" />
    <path
        d="M 14.249502,53.043516 1.9963187,3.2803814 c 0,0 33.4460093,-4.9767759 45.7023273,4.1883038 6.48815,4.8517468 46.308992,43.5059468 52.945194,43.9441968"
        style="fill:#0085ff;fill-opacity:1;stroke:#ffffff;stroke-width:1.36425;stroke-dasharray:none;stroke-opacity:1"
        id="path682" />
    <path
        style="fill:#f2f2f2;fill-opacity:1;stroke:#bbbcbb;stroke-width:0.617;stroke-dasharray:none;stroke-opacity:1"
        d="m 147.87657,90.200648 -9.85046,-1.59863 -24.09378,26.346092 10.14213,2.91885 z"
        id="path10969-4" sodipodi:nodetypes="ccccc" />
    <path
        d="m 109.44392,121.09363 -14.768475,16.19155 c 29.434805,14.63753 46.358125,2.15925 61.883275,-5.10623"
        style="fill:#0085ff;fill-opacity:1;stroke:#ffffff;stroke-width:1.67025;stroke-dasharray:none;stroke-opacity:1"
        id="path12872" />
    <path
        d="m 20.440505,66.461997 c -1.812802,-0.570176 -3.293939,0.151326 -4.388575,1.528537 -2.862746,3.601754 52.680631,20.978586 56.037315,18.106378 1.82725,-1.56352 3.031324,-2.78494 3.031324,-2.78494"
        style="fill:#0085ff;fill-opacity:1;stroke:none;stroke-width:0.264943;stroke-opacity:1"
        id="path13767" />
    <path
        d="m 122.38634,27.281718 -6.87087,-6.490046 c 24.49945,-10.496538 38.58521,-1.548393 51.50724,3.661663"
        style="fill:#0085ff;fill-opacity:1;stroke:#ffffff;stroke-width:1.29038;stroke-dasharray:none;stroke-opacity:1"
        id="path12926" />
    <path
        d="m 14.424593,49.857982 c 80.988616,1.529869 172.621197,-11.382238 234.373957,-3.810217 3.71395,0.4554 10.32967,3.817627 10.32967,3.817627 0,0 -243.322188,4.844055 -244.107661,2.096356 -0.185819,-0.65002 -0.383278,-1.347243 -0.595966,-2.103766 z"
        style="fill:#0085ff;fill-opacity:1;stroke:none;stroke-width:0.241725;stroke-opacity:1"
        id="path15991" />
  </g>
</svg>
